# This file uses centimeters as units for non-parametric coordinates.

mtllib coperta.mtl
g default
v 16.077602 -15.574982 79.961695
v 15.645098 -10.036325 79.961695
v 15.908244 -15.781208 81.367643
v 22.191149 -15.781208 81.367643
v 29.548366 -14.897066 81.367643
v 36.905583 -13.818882 81.367643
v 44.262802 -13.105666 81.367643
v 51.620017 -12.064715 81.367643
v 58.977236 -11.363249 81.367643
v 66.334455 -11.363249 81.367643
v 73.691670 -11.363249 81.367643
v 16.077602 -15.574982 80.052850
v 15.645098 -10.036325 80.052850
v 15.908244 -4.117278 80.052850
v 22.191149 -4.117278 80.052850
v 29.548366 -3.233138 80.052850
v 36.905583 -2.154956 80.052850
v 44.262802 -1.441738 80.052850
v 51.620017 -0.400788 80.052850
v 58.977236 0.300675 80.052850
v 66.334455 0.300675 80.052850
v 73.691670 0.300675 80.052850
v 16.077602 -15.574982 75.576593
v 15.645098 -10.036325 75.576593
v 15.908244 -4.117278 75.576593
v 22.191149 -4.117278 75.576593
v 29.548366 -3.233138 75.576593
v 36.905583 -2.154956 75.576593
v 44.262802 -1.441738 75.576593
v 51.620017 -0.400788 75.576593
v 58.977236 0.300675 75.576593
v 66.334455 0.300675 75.576593
v 73.691670 0.300675 75.576593
v 16.077602 -15.574982 71.100334
v 15.645098 -10.036325 71.100334
v 15.908244 -4.117278 71.100334
v 22.191149 -4.117278 71.100334
v 29.548366 -3.233138 71.100334
v 36.905583 -2.154956 71.100334
v 44.262802 -1.441738 71.100334
v 51.620017 -0.400788 71.100334
v 58.977236 0.300675 71.100334
v 66.334455 0.300675 71.100334
v 73.691670 0.300675 71.100334
v 16.077602 -15.574982 66.624077
v 15.645098 -10.036325 66.624077
v 15.908244 -4.117278 66.624077
v 22.191149 -4.117278 66.624077
v 29.548366 -3.233138 66.624077
v 36.905583 -2.154956 66.624077
v 44.262802 -1.441738 66.624077
v 51.620017 -0.400788 66.624077
v 58.977236 0.300675 66.624077
v 66.334455 0.300675 66.624077
v 73.691670 0.300675 66.624077
v 16.077602 -15.574982 62.147820
v 15.645098 -10.036325 62.147820
v 15.908244 -4.117278 62.147820
v 22.191149 -4.117278 62.147820
v 29.548366 -3.233138 62.147820
v 36.905583 -2.154956 62.147820
v 44.262802 -1.441738 62.147820
v 51.620017 -0.400788 62.147820
v 58.977236 0.300675 62.147820
v 66.334455 0.300675 62.147820
v 73.691670 0.300675 62.147820
v 16.077602 -15.574982 57.671561
v 15.645098 -10.036325 57.671561
v 15.908244 -4.117278 57.671561
v 22.191149 -4.117278 57.671561
v 29.548366 -3.233138 57.671561
v 36.905583 -2.154956 57.671561
v 44.262802 -1.441738 57.671561
v 51.620017 -0.400788 57.671561
v 58.977236 0.300675 57.671561
v 66.334455 0.300675 57.671561
v 73.691670 0.300675 57.671561
v 16.077602 -15.574982 53.195305
v 15.645098 -10.036325 53.195305
v 15.908244 -4.117278 53.195305
v 22.191149 -4.117278 53.195305
v 29.548366 -3.233138 53.195305
v 36.905583 -2.154956 53.195305
v 44.262802 -1.441738 53.195305
v 51.620017 -0.400788 53.195305
v 58.977236 0.300675 53.195305
v 66.334455 0.300675 53.195305
v 73.691670 0.300675 53.195305
v 16.077602 -15.574982 48.719046
v 15.645098 -10.036325 48.719046
v 15.908244 -4.117278 48.719046
v 22.191149 -4.117278 48.719046
v 29.548366 -3.233138 48.719046
v 36.905583 -2.154956 48.719046
v 44.262802 -1.441738 48.719046
v 51.620017 -0.400788 48.719046
v 58.977236 0.300675 48.719046
v 66.334455 0.300675 48.719046
v 73.691670 0.300675 48.719046
v 16.077602 -15.574982 44.242788
v 15.645098 -10.036325 44.242788
v 15.908244 -3.753341 41.654333
v 22.191149 -4.117278 42.381373
v 29.548366 -3.233138 42.381373
v 36.905583 -2.154956 42.381373
v 44.262802 -1.441738 42.381373
v 51.620017 -0.400788 42.381373
v 58.977236 0.300675 42.381373
v 66.334455 0.300675 42.381373
v 73.691670 0.300675 42.381373
v 16.077602 -15.574982 39.766532
v 15.645098 -10.036325 39.766532
v 15.908244 -15.538973 39.794158
v 22.191149 -17.008090 41.110830
v 29.548366 -16.123953 41.110830
v 36.905583 -15.045768 41.110830
v 44.262802 -14.332548 41.110830
v 51.620017 -13.291598 41.110830
v 58.977236 -12.590133 41.110830
v 66.334455 -12.590133 41.110830
v 73.691670 -12.590133 41.110830
vt 0.000000 0.000000
vt 0.100000 0.000000
vt 0.200000 0.000000
vt 0.300000 0.000000
vt 0.400000 0.000000
vt 0.500000 0.000000
vt 0.600000 0.000000
vt 0.700000 0.000000
vt 0.800000 0.000000
vt 0.900000 0.000000
vt 1.000000 0.000000
vt 0.000000 0.100000
vt 0.100000 0.100000
vt 0.200000 0.100000
vt 0.300000 0.100000
vt 0.400000 0.100000
vt 0.500000 0.100000
vt 0.600000 0.100000
vt 0.700000 0.100000
vt 0.800000 0.100000
vt 0.900000 0.100000
vt 1.000000 0.100000
vt 0.000000 0.200000
vt 0.100000 0.200000
vt 0.200000 0.200000
vt 0.300000 0.200000
vt 0.400000 0.200000
vt 0.500000 0.200000
vt 0.600000 0.200000
vt 0.700000 0.200000
vt 0.800000 0.200000
vt 0.900000 0.200000
vt 1.000000 0.200000
vt 0.000000 0.300000
vt 0.100000 0.300000
vt 0.200000 0.300000
vt 0.300000 0.300000
vt 0.400000 0.300000
vt 0.500000 0.300000
vt 0.600000 0.300000
vt 0.700000 0.300000
vt 0.800000 0.300000
vt 0.900000 0.300000
vt 1.000000 0.300000
vt 0.000000 0.400000
vt 0.100000 0.400000
vt 0.200000 0.400000
vt 0.300000 0.400000
vt 0.400000 0.400000
vt 0.500000 0.400000
vt 0.600000 0.400000
vt 0.700000 0.400000
vt 0.800000 0.400000
vt 0.900000 0.400000
vt 1.000000 0.400000
vt 0.000000 0.500000
vt 0.100000 0.500000
vt 0.200000 0.500000
vt 0.300000 0.500000
vt 0.400000 0.500000
vt 0.500000 0.500000
vt 0.600000 0.500000
vt 0.700000 0.500000
vt 0.800000 0.500000
vt 0.900000 0.500000
vt 1.000000 0.500000
vt 0.000000 0.600000
vt 0.100000 0.600000
vt 0.200000 0.600000
vt 0.300000 0.600000
vt 0.400000 0.600000
vt 0.500000 0.600000
vt 0.600000 0.600000
vt 0.700000 0.600000
vt 0.800000 0.600000
vt 0.900000 0.600000
vt 1.000000 0.600000
vt 0.000000 0.700000
vt 0.100000 0.700000
vt 0.200000 0.700000
vt 0.300000 0.700000
vt 0.400000 0.700000
vt 0.500000 0.700000
vt 0.600000 0.700000
vt 0.700000 0.700000
vt 0.800000 0.700000
vt 0.900000 0.700000
vt 1.000000 0.700000
vt 0.000000 0.800000
vt 0.100000 0.800000
vt 0.200000 0.800000
vt 0.300000 0.800000
vt 0.400000 0.800000
vt 0.500000 0.800000
vt 0.600000 0.800000
vt 0.700000 0.800000
vt 0.800000 0.800000
vt 0.900000 0.800000
vt 1.000000 0.800000
vt 0.000000 0.900000
vt 0.100000 0.900000
vt 0.200000 0.900000
vt 0.300000 0.900000
vt 0.400000 0.900000
vt 0.500000 0.900000
vt 0.600000 0.900000
vt 0.700000 0.900000
vt 0.800000 0.900000
vt 0.900000 0.900000
vt 1.000000 0.900000
vt 0.000000 1.000000
vt 0.100000 1.000000
vt 0.200000 1.000000
vt 0.300000 1.000000
vt 0.400000 1.000000
vt 0.500000 1.000000
vt 0.600000 1.000000
vt 0.700000 1.000000
vt 0.800000 1.000000
vt 0.900000 1.000000
vt 1.000000 1.000000
vn 0.996965 0.077850 0.000000
vn -0.917179 0.053257 0.394900
vn -0.999559 -0.010147 0.027923
vn -0.996965 -0.077851 0.000000
vn -0.004363 0.112000 0.993699
vn -0.308915 0.433437 0.846584
vn -0.006783 0.112011 0.993684
vn -0.027980 0.425848 0.904362
vn -0.014717 0.112002 0.993599
vn -0.058887 0.440119 0.896006
vn -0.013998 0.112003 0.993609
vn -0.054623 0.451489 0.890603
vn -0.013017 0.112004 0.993623
vn -0.052461 0.437634 0.897621
vn -0.013592 0.112003 0.993615
vn -0.053097 0.451013 0.890937
vn -0.005608 0.112012 0.993691
vn -0.021653 0.459788 0.887765
vn 0.000000 0.112014 0.993707
vn 0.000000 0.444699 0.895680
vn 0.000000 0.112014 0.993707
vn 0.000000 0.444698 0.895680
vn -0.999891 -0.014780 0.000000
vn -0.996965 -0.077851 0.000000
vn -0.670691 0.741737 0.000000
vn -0.064683 0.997906 0.000000
vn -0.132190 0.991224 0.000000
vn -0.120852 0.992671 0.000000
vn -0.118376 0.992969 0.000000
vn -0.117594 0.993062 0.000000
vn -0.047618 0.998866 0.000000
vn 0.000000 1.000000 0.000000
vn 0.000000 1.000000 0.000000
vn -0.999891 -0.014780 0.000000
vn -0.996965 -0.077851 0.000000
vn -0.670691 0.741737 0.000000
vn -0.064683 0.997906 0.000000
vn -0.132190 0.991224 0.000000
vn -0.120852 0.992671 0.000000
vn -0.118376 0.992969 0.000000
vn -0.117594 0.993062 0.000000
vn -0.047618 0.998866 0.000000
vn 0.000000 1.000000 0.000000
vn 0.000000 1.000000 0.000000
vn -0.999891 -0.014780 0.000000
vn -0.996965 -0.077851 0.000000
vn -0.670691 0.741737 0.000000
vn -0.064683 0.997906 0.000000
vn -0.132190 0.991224 0.000000
vn -0.120852 0.992671 0.000000
vn -0.118376 0.992969 0.000000
vn -0.117594 0.993062 0.000000
vn -0.047618 0.998866 0.000000
vn 0.000000 1.000000 0.000000
vn 0.000000 1.000000 0.000000
vn -0.999891 -0.014780 0.000000
vn -0.996965 -0.077851 0.000000
vn -0.670691 0.741737 0.000000
vn -0.064683 0.997906 0.000000
vn -0.132190 0.991224 0.000000
vn -0.120852 0.992671 0.000000
vn -0.118376 0.992969 0.000000
vn -0.117594 0.993062 0.000000
vn -0.047618 0.998866 0.000000
vn 0.000000 1.000000 0.000000
vn 0.000000 1.000000 0.000000
vn -0.999891 -0.014780 0.000000
vn -0.996965 -0.077851 0.000000
vn -0.670691 0.741737 0.000000
vn -0.064683 0.997906 0.000000
vn -0.132190 0.991224 0.000000
vn -0.120852 0.992671 0.000000
vn -0.118376 0.992969 0.000000
vn -0.117594 0.993062 0.000000
vn -0.047618 0.998866 0.000000
vn 0.000000 1.000000 0.000000
vn 0.000000 1.000000 0.000000
vn -0.999891 -0.014780 0.000000
vn -0.996965 -0.077851 0.000000
vn -0.670691 0.741737 0.000000
vn -0.064683 0.997906 0.000000
vn -0.132190 0.991224 0.000000
vn -0.120852 0.992671 0.000000
vn -0.118376 0.992969 0.000000
vn -0.117594 0.993062 0.000000
vn -0.047618 0.998866 0.000000
vn 0.000000 1.000000 0.000000
vn 0.000000 1.000000 0.000000
vn -0.999944 -0.010586 0.000431
vn -0.996965 -0.077851 0.000000
vn -0.644639 0.764385 0.012494
vn -0.056042 0.998399 0.007621
vn -0.132190 0.991224 0.000000
vn -0.120852 0.992671 0.000000
vn -0.118376 0.992969 0.000000
vn -0.117594 0.993062 0.000000
vn -0.047618 0.998866 0.000000
vn 0.000000 1.000000 0.000000
vn 0.000000 1.000000 0.000000
vn -0.999842 -0.013680 -0.011370
vn -0.996965 -0.077851 0.000000
vn -0.158421 0.538000 -0.827925
vn 0.041770 0.520809 -0.852650
vn -0.067214 0.502785 -0.861794
vn -0.062503 0.515760 -0.854450
vn -0.059850 0.499999 -0.863955
vn -0.060751 0.515234 -0.854894
vn -0.024821 0.525357 -0.850520
vn 0.000000 0.508280 -0.861192
vn 0.000000 0.508280 -0.861192
vn -0.998400 -0.032879 -0.046012
vn -0.996965 -0.077851 0.000000
vn 0.167931 0.124712 -0.977878
vn 0.069485 0.109643 -0.991539
vn -0.012887 0.098079 -0.995095
vn -0.012259 0.098079 -0.995103
vn -0.011398 0.098080 -0.995113
vn -0.011903 0.098080 -0.995107
vn -0.004911 0.098086 -0.995166
vn 0.000000 0.098087 -0.995178
vn 0.000000 0.098087 -0.995178
s 1
g pPlane6
usemtl initialShadingGroup
f 1/1/1 2/2/2 13/13/3 12/12/4
f 2/2/2 3/3/5 14/14/6 13/13/3
f 3/3/5 4/4/7 15/15/8 14/14/6
f 4/4/7 5/5/9 16/16/10 15/15/8
f 5/5/9 6/6/11 17/17/12 16/16/10
f 6/6/11 7/7/13 18/18/14 17/17/12
f 7/7/13 8/8/15 19/19/16 18/18/14
f 8/8/15 9/9/17 20/20/18 19/19/16
f 9/9/17 10/10/19 21/21/20 20/20/18
f 10/10/19 11/11/21 22/22/22 21/21/20
f 12/12/4 13/13/3 24/24/23 23/23/24
f 13/13/3 14/14/6 25/25/25 24/24/23
f 14/14/6 15/15/8 26/26/26 25/25/25
f 15/15/8 16/16/10 27/27/27 26/26/26
f 16/16/10 17/17/12 28/28/28 27/27/27
f 17/17/12 18/18/14 29/29/29 28/28/28
f 18/18/14 19/19/16 30/30/30 29/29/29
f 19/19/16 20/20/18 31/31/31 30/30/30
f 20/20/18 21/21/20 32/32/32 31/31/31
f 21/21/20 22/22/22 33/33/33 32/32/32
f 23/23/24 24/24/23 35/35/34 34/34/35
f 24/24/23 25/25/25 36/36/36 35/35/34
f 25/25/25 26/26/26 37/37/37 36/36/36
f 26/26/26 27/27/27 38/38/38 37/37/37
f 27/27/27 28/28/28 39/39/39 38/38/38
f 28/28/28 29/29/29 40/40/40 39/39/39
f 29/29/29 30/30/30 41/41/41 40/40/40
f 30/30/30 31/31/31 42/42/42 41/41/41
f 31/31/31 32/32/32 43/43/43 42/42/42
f 32/32/32 33/33/33 44/44/44 43/43/43
f 34/34/35 35/35/34 46/46/45 45/45/46
f 35/35/34 36/36/36 47/47/47 46/46/45
f 36/36/36 37/37/37 48/48/48 47/47/47
f 37/37/37 38/38/38 49/49/49 48/48/48
f 38/38/38 39/39/39 50/50/50 49/49/49
f 39/39/39 40/40/40 51/51/51 50/50/50
f 40/40/40 41/41/41 52/52/52 51/51/51
f 41/41/41 42/42/42 53/53/53 52/52/52
f 42/42/42 43/43/43 54/54/54 53/53/53
f 43/43/43 44/44/44 55/55/55 54/54/54
f 45/45/46 46/46/45 57/57/56 56/56/57
f 46/46/45 47/47/47 58/58/58 57/57/56
f 47/47/47 48/48/48 59/59/59 58/58/58
f 48/48/48 49/49/49 60/60/60 59/59/59
f 49/49/49 50/50/50 61/61/61 60/60/60
f 50/50/50 51/51/51 62/62/62 61/61/61
f 51/51/51 52/52/52 63/63/63 62/62/62
f 52/52/52 53/53/53 64/64/64 63/63/63
f 53/53/53 54/54/54 65/65/65 64/64/64
f 54/54/54 55/55/55 66/66/66 65/65/65
f 56/56/57 57/57/56 68/68/67 67/67/68
f 57/57/56 58/58/58 69/69/69 68/68/67
f 58/58/58 59/59/59 70/70/70 69/69/69
f 59/59/59 60/60/60 71/71/71 70/70/70
f 60/60/60 61/61/61 72/72/72 71/71/71
f 61/61/61 62/62/62 73/73/73 72/72/72
f 62/62/62 63/63/63 74/74/74 73/73/73
f 63/63/63 64/64/64 75/75/75 74/74/74
f 64/64/64 65/65/65 76/76/76 75/75/75
f 65/65/65 66/66/66 77/77/77 76/76/76
f 67/67/68 68/68/67 79/79/78 78/78/79
f 68/68/67 69/69/69 80/80/80 79/79/78
f 69/69/69 70/70/70 81/81/81 80/80/80
f 70/70/70 71/71/71 82/82/82 81/81/81
f 71/71/71 72/72/72 83/83/83 82/82/82
f 72/72/72 73/73/73 84/84/84 83/83/83
f 73/73/73 74/74/74 85/85/85 84/84/84
f 74/74/74 75/75/75 86/86/86 85/85/85
f 75/75/75 76/76/76 87/87/87 86/86/86
f 76/76/76 77/77/77 88/88/88 87/87/87
f 78/78/79 79/79/78 90/90/89 89/89/90
f 79/79/78 80/80/80 91/91/91 90/90/89
f 80/80/80 81/81/81 92/92/92 91/91/91
f 81/81/81 82/82/82 93/93/93 92/92/92
f 82/82/82 83/83/83 94/94/94 93/93/93
f 83/83/83 84/84/84 95/95/95 94/94/94
f 84/84/84 85/85/85 96/96/96 95/95/95
f 85/85/85 86/86/86 97/97/97 96/96/96
f 86/86/86 87/87/87 98/98/98 97/97/97
f 87/87/87 88/88/88 99/99/99 98/98/98
f 89/89/90 90/90/89 101/101/100 100/100/101
f 90/90/89 91/91/91 102/102/102 101/101/100
f 91/91/91 92/92/92 103/103/103 102/102/102
f 92/92/92 93/93/93 104/104/104 103/103/103
f 93/93/93 94/94/94 105/105/105 104/104/104
f 94/94/94 95/95/95 106/106/106 105/105/105
f 95/95/95 96/96/96 107/107/107 106/106/106
f 96/96/96 97/97/97 108/108/108 107/107/107
f 97/97/97 98/98/98 109/109/109 108/108/108
f 98/98/98 99/99/99 110/110/110 109/109/109
f 100/100/101 101/101/100 112/112/111 111/111/112
f 101/101/100 102/102/102 113/113/113 112/112/111
f 102/102/102 103/103/103 114/114/114 113/113/113
f 103/103/103 104/104/104 115/115/115 114/114/114
f 104/104/104 105/105/105 116/116/116 115/115/115
f 105/105/105 106/106/106 117/117/117 116/116/116
f 106/106/106 107/107/107 118/118/118 117/117/117
f 107/107/107 108/108/108 119/119/119 118/118/118
f 108/108/108 109/109/109 120/120/120 119/119/119
f 109/109/109 110/110/110 121/121/121 120/120/120
