# This file uses centimeters as units for non-parametric coordinates.

mtllib cuscinoSedia.mtl
g default
v -3.831732 -5.961159 -35.446122
v 2.522161 -5.961159 -45.620007
v -3.831732 -4.678492 -35.446122
v 2.522161 -4.678492 -45.620007
v -12.522917 -4.678492 -40.874025
v -6.169024 -4.678492 -51.047910
v -12.522917 -5.961159 -40.874025
v -6.169024 -5.961159 -51.047910
v 1.634414 -5.961159 -44.198543
v -7.056770 -5.961159 -49.626445
v -7.056770 -4.678492 -49.626445
v 1.634414 -4.678492 -44.198543
v -3.132738 -5.961159 -36.565355
v -11.823922 -5.961159 -41.993258
v -11.823922 -4.678492 -41.993258
v -3.132738 -4.678492 -36.565355
v -11.316841 -4.678492 -40.120795
v -10.617847 -3.932355 -41.240028
v -5.850695 -3.932355 -48.873215
v -4.962948 -4.678492 -50.294680
v -4.962948 -5.961159 -50.294680
v -5.850695 -5.961159 -48.873215
v -10.617847 -5.961159 -41.240028
v -11.316841 -5.961159 -40.120795
v -4.636501 -4.678492 -35.948724
v -3.937506 -3.932355 -37.067958
v 0.829645 -3.932355 -44.701145
v 1.717392 -4.678492 -46.122609
v 1.717392 -5.961159 -46.122609
v 0.829645 -5.961159 -44.701145
v -3.937506 -5.961159 -37.067958
v -4.636501 -5.961159 -35.948724
vt 0.375000 0.000000
vt 0.625000 0.000000
vt 0.375000 0.250000
vt 0.625000 0.250000
vt 0.375000 0.500000
vt 0.625000 0.500000
vt 0.375000 0.750000
vt 0.625000 0.750000
vt 0.375000 1.000000
vt 0.625000 1.000000
vt 0.875000 0.000000
vt 0.875000 0.250000
vt 0.125000 0.000000
vt 0.125000 0.250000
vt 0.590071 0.000000
vt 0.590071 1.000000
vt 0.590071 0.750000
vt 0.590071 0.500000
vt 0.590071 0.250000
vt 0.402503 0.000000
vt 0.402503 1.000000
vt 0.402503 0.750000
vt 0.402503 0.500000
vt 0.402503 0.250000
vt 0.159692 0.250000
vt 0.375000 0.465308
vt 0.402503 0.465308
vt 0.590071 0.465308
vt 0.625000 0.465308
vt 0.840308 0.250000
vt 0.625000 0.784693
vt 0.840308 0.000000
vt 0.590071 0.784693
vt 0.402503 0.784693
vt 0.159692 0.000000
vt 0.375000 0.784693
vt 0.351851 0.250000
vt 0.375000 0.273149
vt 0.402503 0.273149
vt 0.590071 0.273149
vt 0.625000 0.273149
vt 0.648149 0.250000
vt 0.625000 0.976851
vt 0.648149 0.000000
vt 0.590071 0.976851
vt 0.402503 0.976851
vt 0.351851 0.000000
vt 0.375000 0.976851
vn 0.848178 0.000000 0.529712
vn 0.848178 0.000000 0.529712
vn 0.848178 0.000000 0.529712
vn 0.848178 0.000000 0.529712
vn -0.352386 0.899832 -0.257150
vn -0.027086 0.995622 -0.089457
vn 0.169847 0.924235 -0.341967
vn -0.098920 0.945592 -0.309952
vn -0.848178 0.000000 -0.529712
vn -0.848178 0.000000 -0.529712
vn -0.848178 0.000000 -0.529712
vn -0.848178 0.000000 -0.529712
vn 0.000000 -1.000000 0.000000
vn 0.000000 -1.000000 0.000000
vn 0.000000 -1.000000 0.000000
vn 0.000000 -1.000000 0.000000
vn 0.529712 0.000000 -0.848177
vn 0.529712 0.000000 -0.848177
vn 0.529712 0.000000 -0.848177
vn 0.529712 0.000000 -0.848177
vn -0.529712 0.000000 0.848177
vn -0.529712 0.000000 0.848177
vn -0.529712 0.000000 0.848177
vn -0.529712 0.000000 0.848177
vn 0.000000 -1.000000 0.000000
vn 0.000000 -1.000000 0.000000
vn -0.848178 0.000000 -0.529712
vn -0.848178 0.000000 -0.529712
vn -0.390915 0.897101 -0.205899
vn -0.094637 0.995390 0.015545
vn 0.848178 0.000000 0.529712
vn 0.848178 0.000000 0.529712
vn 0.000000 -1.000000 0.000000
vn 0.000000 -1.000000 0.000000
vn -0.848178 0.000000 -0.529712
vn -0.848178 0.000000 -0.529712
vn -0.275189 0.885857 0.373535
vn -0.347348 0.933007 0.094065
vn 0.848178 0.000000 0.529712
vn 0.848178 0.000000 0.529712
vn -0.218130 0.881115 0.419589
vn 0.029069 0.994989 0.095671
vn 0.096149 0.995251 -0.015193
vn 0.238516 0.920862 -0.308422
vn 0.529712 0.000000 -0.848177
vn 0.529712 0.000000 -0.848177
vn 0.000000 -1.000000 0.000000
vn 0.000000 -1.000000 0.000000
vn 0.000000 -1.000000 0.000000
vn 0.000000 -1.000000 0.000000
vn -0.529712 0.000000 0.848177
vn -0.529712 0.000000 0.848177
vn 0.165366 0.900014 0.403273
vn 0.487181 0.804999 0.338572
vn 0.512482 0.809419 0.286711
vn 0.411371 0.911295 0.017741
vn 0.529712 0.000000 -0.848177
vn 0.529712 0.000000 -0.848177
vn 0.000000 -1.000000 0.000000
vn 0.000000 -1.000000 0.000000
vn 0.000000 -1.000000 0.000000
vn 0.000000 -1.000000 0.000000
vn -0.529712 0.000000 0.848177
vn -0.529712 0.000000 0.848177
s 1
g pCube9
usemtl initialShadingGroup
f 12/19/1 9/15/2 2/2/3 4/4/4
s 2
f 11/18/5 19/28/6 20/29/7 6/6/8
s 3
f 10/17/9 11/18/10 6/6/11 8/8/12
s 4
f 21/31/13 22/33/14 10/17/15 8/8/16
s 5
f 20/30/17 21/32/18 8/11/19 6/12/20
s 6
f 7/13/21 24/35/22 17/25/23 5/14/24
s 4
f 22/33/14 23/34/25 14/22/26 10/17/15
s 3
f 14/22/27 15/23/28 11/18/10 10/17/9
s 2
f 15/23/29 18/27/30 19/28/6 11/18/5
s 1
f 16/24/31 13/20/32 9/15/2 12/19/1
s 4
f 7/7/33 14/22/26 23/34/25 24/36/34
s 3
f 5/5/35 15/23/28 14/22/27 7/7/36
s 2
f 17/26/37 18/27/30 15/23/29 5/5/38
s 1
f 1/1/39 13/20/32 16/24/31 3/3/40
s 2
f 25/38/41 26/39/42 18/27/30 17/26/37
f 19/28/6 18/27/30 26/39/42 27/40/43
f 20/29/7 19/28/6 27/40/43 28/41/44
s 5
f 28/42/45 29/44/46 21/32/18 20/30/17
s 4
f 29/43/47 30/45/48 22/33/14 21/31/13
f 30/45/48 31/46/49 23/34/25 22/33/14
f 24/36/34 23/34/25 31/46/49 32/48/50
s 6
f 17/25/23 24/35/22 32/47/51 25/37/52
s 2
f 3/3/53 16/24/54 26/39/42 25/38/41
f 27/40/43 26/39/42 16/24/54 12/19/55
f 28/41/44 27/40/43 12/19/55 4/4/56
s 5
f 2/2/57 29/44/46 28/42/45 4/4/58
s 4
f 9/16/59 30/45/48 29/43/47 2/10/60
f 13/21/61 31/46/49 30/45/48 9/16/59
f 32/48/50 31/46/49 13/21/61 1/9/62
s 6
f 25/37/52 32/47/51 1/1/63 3/3/64
