# This file uses centimeters as units for non-parametric coordinates.

mtllib letto.mtl
g default
v 77.883196 -9.526318 80.008593
v 77.842068 -9.526318 42.723446
v 77.883196 -4.199865 80.008593
v 77.842068 -4.199865 42.723446
v 16.675128 -4.199865 80.076109
v 16.634000 -4.199865 42.790963
v 16.675128 -9.526318 80.076109
v 16.634000 -9.526318 42.790963
v 73.825865 -4.199865 80.013068
v 73.784737 -4.199865 42.727922
v 75.227304 -9.526318 42.726330
v 71.373229 -9.526318 80.015774
v 18.599064 -9.526318 80.073987
v 18.557936 -9.526318 42.788840
v 22.458090 -4.199865 42.784538
v 22.499218 -4.199865 80.069685
v 77.877319 -9.526318 74.680362
v 71.367352 -9.526318 74.687543
v 18.596655 -9.526318 77.889686
v 16.672719 -9.526318 77.891808
v 16.669251 -4.199865 74.747879
v 22.493340 -4.544709 74.741454
v 73.819988 0.257490 74.684838
v 77.877319 -4.199865 74.680362
v 75.229886 -9.526318 45.066969
v 77.844650 -9.526318 45.064085
v 77.849494 -4.199865 49.455359
v 73.792163 0.257490 49.459834
v 22.465516 -4.544709 49.516451
v 16.641426 -4.199865 49.522875
v 16.636582 -9.526318 45.131602
v 18.560518 -9.526318 45.129479
v 75.266022 -9.526325 77.827176
v 75.268432 -9.526325 80.011477
v 77.880787 -9.526325 77.824292
v 77.883196 -9.526325 80.008593
v 75.266022 -19.945227 77.827176
v 75.268432 -19.945227 80.011477
v 77.880787 -19.945227 77.824292
v 77.883196 -19.945227 80.008593
v 16.675128 -19.945227 80.076109
v 16.672719 -19.945227 77.891808
v 18.596655 -19.945227 77.889686
v 18.599064 -19.945227 80.073987
v 75.229886 -19.945227 45.066969
v 77.844650 -19.945227 45.064085
v 75.227304 -19.945227 42.726330
v 77.842068 -19.945227 42.723446
v 16.636582 -19.945227 45.131602
v 18.560518 -19.945227 45.129479
v 16.634000 -19.945227 42.790963
v 18.557936 -19.945227 42.788840
v 73.819988 8.102723 74.684838
v 77.877319 8.102723 74.680362
v 77.849494 8.102723 49.455359
v 73.792163 8.102723 49.459834
v 77.883196 8.102723 80.008593
v 73.825865 8.102723 80.013068
v 77.842068 8.102723 42.723446
v 73.784737 8.102723 42.727922
v 58.136976 -4.199865 80.030374
v 58.131096 -0.087353 74.702144
v 58.103274 -0.087353 49.477140
v 58.095848 -4.199865 42.745227
v 59.879878 -9.526318 42.743260
v 59.882460 -9.526318 45.083899
v 57.075783 -9.526318 75.554761
v 57.080718 -9.526318 80.031539
vt 0.375000 0.000000
vt 0.625000 0.000000
vt 0.375000 0.250000
vt 0.625000 0.250000
vt 0.375000 0.500000
vt 0.625000 0.500000
vt 0.375000 0.750000
vt 0.625000 0.750000
vt 0.375000 1.000000
vt 0.625000 1.000000
vt 0.875000 0.000000
vt 0.875000 0.250000
vt 0.125000 0.000000
vt 0.125000 0.250000
vt 0.348411 0.250000
vt 0.375000 0.276590
vt 0.625000 0.276590
vt 0.651590 0.250000
vt 0.625000 0.973410
vt 0.651590 0.000000
vt 0.348411 0.000000
vt 0.375000 0.973410
vt 0.148788 0.000000
vt 0.375000 0.773788
vt 0.625000 0.773788
vt 0.851212 0.000000
vt 0.625000 0.476212
vt 0.851212 0.250000
vt 0.148788 0.250000
vt 0.375000 0.476212
vt 0.410726 0.000000
vt 0.410726 1.000000
vt 0.410726 0.973410
vt 0.410726 0.773788
vt 0.410726 0.750000
vt 0.410726 0.500000
vt 0.410726 0.476212
vt 0.410726 0.276590
vt 0.410726 0.250000
vt 0.579862 0.973410
vt 0.579862 0.000000
vt 0.579862 1.000000
vt 0.579862 0.250000
vt 0.579862 0.276590
vt 0.579862 0.476212
vt 0.579862 0.500000
vt 0.579862 0.750000
vt 0.579862 0.773788
vt 0.375000 0.973410
vt 0.410726 0.973410
vt 0.410726 1.000000
vt 0.375000 1.000000
vt 0.375000 0.973410
vt 0.410726 0.973410
vt 0.410726 1.000000
vt 0.375000 1.000000
vt 0.375000 0.750000
vt 0.410726 0.750000
vt 0.410726 0.773788
vt 0.375000 0.773788
vt 0.579862 1.000000
vt 0.579862 0.973410
vt 0.625000 0.973410
vt 0.625000 1.000000
vt 0.579862 0.773788
vt 0.579862 0.750000
vt 0.625000 0.750000
vt 0.625000 0.773788
vt 0.410726 0.250000
vt 0.579862 0.250000
vt 0.579862 0.276590
vt 0.410726 0.276590
vt 0.375000 0.250000
vt 0.375000 0.276590
vt 0.625000 0.250000
vt 0.625000 0.276590
vt 0.294348 0.250000
vt 0.375000 0.330652
vt 0.410726 0.330652
vt 0.579862 0.330652
vt 0.625000 0.330652
vt 0.705652 0.250000
vt 0.625000 0.919348
vt 0.705652 0.000000
vt 0.579862 0.919348
vt 0.410726 0.919348
vt 0.294348 0.000000
vt 0.375000 0.919348
vn 0.999999 0.000000 -0.001103
vn 0.999999 0.000000 -0.001103
vn 0.999999 0.000000 -0.001103
vn 0.999999 0.000000 -0.001103
vn -0.091440 0.994920 0.042095
vn -0.085900 0.993775 0.070940
vn -0.084477 0.994044 -0.068857
vn -0.089665 0.995079 -0.042167
vn -0.999999 0.000000 0.001103
vn -0.999999 0.000000 0.001103
vn -0.999999 0.000000 0.001103
vn -0.999999 0.000000 0.001103
vn 0.000000 -1.000000 -0.000000
vn -0.000000 -1.000000 0.000000
vn -0.000000 -1.000000 0.000000
vn -0.000000 -1.000000 0.000000
vn -0.001103 0.000000 -0.999999
vn -0.001103 0.000000 -0.999999
vn -0.001103 0.000000 -0.999999
vn -0.001103 0.000000 -0.999999
vn 0.001103 -0.000000 0.999999
vn 0.001103 -0.000000 0.999999
vn 0.001103 -0.000000 0.999999
vn 0.001103 -0.000000 0.999999
vn 0.000000 1.000000 0.000000
vn 0.000000 1.000000 0.000000
vn 0.000000 1.000000 0.000000
vn 0.000000 1.000000 0.000000
vn -0.001103 0.000000 -0.999999
vn -0.001103 0.000000 -0.999999
vn -0.001103 0.000000 -0.999999
vn -0.001103 0.000000 -0.999999
vn 0.000000 -1.000000 -0.000000
vn 0.000000 -1.000000 -0.000000
vn 0.000000 -1.000000 -0.000000
vn 0.000000 -1.000000 -0.000000
vn 0.001103 0.000000 0.999999
vn 0.001103 0.000000 0.999999
vn 0.001103 0.000000 0.999999
vn 0.001103 0.000000 0.999999
vn 0.000000 -1.000000 -0.000000
vn 0.000000 -1.000000 -0.000000
vn -0.001103 0.000000 -0.999999
vn -0.001103 0.000000 -0.999999
vn 0.053961 0.998527 -0.005695
vn 0.052904 0.998585 0.005329
vn 0.001103 0.000000 0.999999
vn 0.001103 0.000000 0.999999
vn 0.000000 -1.000000 -0.000000
vn 0.000000 -1.000000 -0.000000
vn 0.000000 -1.000000 -0.000000
vn 0.000000 -1.000000 -0.000000
vn 0.000000 -1.000000 -0.000000
vn 0.000000 -1.000000 -0.000000
vn 0.000000 -1.000000 -0.000000
vn 0.000000 -1.000000 -0.000000
vn 0.000000 -1.000000 -0.000000
vn 0.000000 -1.000000 -0.000000
vn -0.999999 0.000000 0.001103
vn -0.999999 0.000000 0.001103
vn -0.047141 0.956919 0.286504
vn 0.029541 0.999040 -0.032362
vn -0.041464 0.896738 0.440615
vn 0.000000 1.000000 0.000000
vn 0.000000 1.000000 0.000000
vn 0.999999 0.000000 -0.001103
vn 0.999999 0.000000 -0.001103
vn 0.000000 -1.000000 -0.000000
vn 0.000000 -1.000000 -0.000000
vn 0.000000 -1.000000 -0.000000
vn 0.000000 -1.000000 -0.000000
vn 0.999999 0.000000 -0.001103
vn 0.999999 0.000000 -0.001103
vn 0.000000 1.000000 0.000000
vn 0.000000 1.000000 0.000000
vn -0.043958 0.931129 -0.362031
vn -0.048456 0.971930 -0.230226
vn 0.029611 0.999235 0.025560
vn -0.999999 0.000000 0.001103
vn -0.999999 0.000000 0.001103
vn 0.000000 -1.000000 -0.000000
vn 0.000000 -1.000000 -0.000000
vn 0.000000 -1.000000 -0.000000
vn 0.000000 -1.000000 -0.000000
vn 0.000000 -1.000000 -0.000000
vn 0.000000 -1.000000 -0.000000
vn -0.000002 -1.000000 0.000000
vn -0.000002 -1.000000 0.000000
vn -0.000002 -1.000000 0.000000
vn -0.000002 -1.000000 0.000000
vn -0.000000 -1.000000 -0.000002
vn -0.000000 -1.000000 -0.000002
vn -0.000000 -1.000000 -0.000002
vn -0.000000 -1.000000 -0.000002
vn 0.000000 0.000000 -0.000000
vn 0.999999 0.000000 -0.001103
vn 0.999999 0.000000 -0.001103
vn 0.999999 0.000000 -0.001103
vn 0.001103 0.000000 0.999999
vn 0.000000 0.000000 0.000000
vn 0.001103 0.000000 0.999999
vn 0.001103 0.000000 0.999999
vn -0.999999 0.000000 0.001103
vn -0.999999 0.000000 0.001103
vn -0.999999 0.000000 0.001103
vn -0.999999 0.000000 0.001103
vn -0.001103 0.000000 -0.999999
vn -0.001103 0.000000 -0.999999
vn -0.001103 0.000000 -0.999999
vn -0.001103 0.000000 -0.999999
vn 0.999999 0.000000 -0.001103
vn 0.999999 0.000000 -0.001103
vn 0.999999 0.000000 -0.001103
vn 0.999999 0.000000 -0.001103
vn 0.001103 0.000000 0.999999
vn 0.001103 0.000000 0.999999
vn 0.001103 0.000000 0.999999
vn 0.001103 0.000000 0.999999
vn -0.999999 0.000000 0.001103
vn -0.999999 0.000000 0.001103
vn -0.999999 0.000000 0.001103
vn -0.999999 0.000000 0.001103
vn -0.001103 0.000000 -0.999999
vn -0.001103 0.000000 -0.999999
vn -0.001103 0.000000 -0.999999
vn -0.001103 0.000000 -0.999999
vn 0.999999 0.000000 -0.001103
vn 0.999999 0.000000 -0.001103
vn 0.999999 0.000000 -0.001103
vn 0.999999 0.000000 -0.001103
vn 0.001103 0.000000 0.999999
vn 0.001103 0.000000 0.999999
vn 0.001103 0.000000 0.999999
vn 0.001103 0.000000 0.999999
vn 0.001103 0.000000 0.999999
vn 0.001103 0.000000 0.999999
vn 0.001103 0.000000 0.999999
vn 0.001103 0.000000 0.999999
vn -0.999999 0.000000 0.001103
vn -0.999999 0.000000 0.001103
vn -0.999999 0.000000 0.001103
vn -0.999999 0.000000 0.001103
vn -0.001103 0.000000 -0.999999
vn -0.001103 0.000000 -0.999999
vn -0.001103 0.000000 -0.999999
vn -0.001103 0.000000 -0.999999
vn 0.999999 0.000000 -0.001103
vn 0.999999 0.000000 -0.001103
vn 0.999999 0.000000 -0.001103
vn 0.999999 0.000000 -0.001103
vn 0.001103 0.000000 0.999999
vn 0.001103 0.000000 0.999999
vn 0.001103 0.000000 0.999999
vn 0.001103 0.000000 0.999999
vn -0.999999 0.000000 0.001103
vn -0.999999 0.000000 0.001103
vn -0.999999 0.000000 0.001103
vn -0.999999 0.000000 0.001103
vn -0.001103 0.000000 -0.999999
vn -0.001103 0.000000 -0.999999
vn -0.001103 0.000000 -0.999999
vn -0.001103 0.000000 -0.999999
vn 0.999999 0.000000 -0.001103
vn 0.999999 0.000000 -0.001103
vn 0.999999 0.000000 -0.001103
vn 0.999999 0.000000 -0.001103
vn 0.999999 0.000000 -0.001103
vn 0.999999 0.000000 -0.001103
vn 0.999999 0.000000 -0.001103
vn 0.999999 0.000000 -0.001103
vn -0.999999 0.000000 0.001103
vn -0.999999 0.000000 0.001103
vn -0.999999 0.000000 0.001103
vn -0.999999 0.000000 0.001103
vn 0.999999 0.000000 -0.001103
vn 0.999999 0.000000 -0.001103
vn 0.999999 0.000000 -0.001103
vn 0.999999 0.000000 -0.001103
vn -0.999999 0.000000 0.001103
vn -0.999999 0.000000 0.001103
vn -0.999999 0.000000 0.001103
vn -0.999999 0.000000 0.001103
vn 0.001103 0.000000 0.999999
vn 0.001103 0.000000 0.999999
vn 0.001103 0.000000 0.999999
vn 0.001103 0.000000 0.999999
vn 0.999999 0.000000 -0.001103
vn 0.999999 0.000000 -0.001103
vn 0.999999 0.000000 -0.001103
vn 0.999999 0.000000 -0.001103
vn -0.001103 0.000000 -0.999999
vn -0.001103 0.000000 -0.999999
vn -0.001103 0.000000 -0.999999
vn -0.001103 0.000000 -0.999999
vn -0.999999 0.000000 0.001103
vn -0.999999 0.000000 0.001103
vn -0.999999 0.000000 0.001103
vn -0.999999 0.000000 0.001103
vn -0.007873 0.779243 0.626672
vn -0.020030 0.992465 0.120878
vn -0.019944 0.993001 -0.116409
vn -0.009863 0.843569 -0.536930
vn 0.000000 -1.000000 -0.000000
vn 0.000000 -1.000000 -0.000000
s 1
g pCube1
usemtl initialShadingGroup
f 24/39/1 17/31/2 26/41/3 27/43/4
s 2
f 22/37/5 62/79/6 63/80/7 29/45/8
s 3
f 20/35/9 21/36/10 30/46/11 31/47/12
s 4
f 66/85/13 67/86/14 19/34/15 32/48/16
s 5
f 64/82/17 65/84/18 14/26/19 15/28/20
s 6
f 16/29/21 13/23/22 68/87/23 61/77/24
s 7
f 53/72/25 54/69/26 55/70/27 56/71/28
s 5
f 2/2/29 11/20/30 10/18/31 4/4/32
s 4
f 17/32/33 18/33/34 25/40/35 26/42/36
s 6
f 9/15/37 12/21/38 1/1/39 3/3/40
s 4
f 19/34/15 20/35/41 31/47/42 32/48/16
s 5
f 15/28/20 14/26/19 8/11/43 6/12/44
s 2
f 21/36/45 22/37/5 29/45/8 30/46/46
s 6
f 7/13/47 13/23/22 16/29/21 5/14/48
s off
f 38/53/49 37/54/50 39/55/51 40/56/52
s 4
f 13/24/53 19/34/15 67/86/14 68/88/54
s off
f 41/57/55 42/58/56 43/59/57 44/60/58
s 3
f 5/5/59 21/36/10 20/35/9 7/7/60
s 2
f 16/30/61 22/37/5 21/36/45 5/5/62
f 61/78/63 62/79/6 22/37/5 16/30/61
s 7
f 57/73/64 54/69/26 53/72/25 58/74/65
s 1
f 1/1/66 17/31/2 24/39/1 3/3/67
s off
f 46/61/68 45/62/69 47/63/70 48/64/71
s 1
f 27/43/4 26/41/3 2/2/72 4/4/73
s 7
f 56/71/28 55/70/27 59/75/74 60/76/75
s 2
f 29/45/8 63/80/7 64/81/76 15/27/77
f 30/46/46 29/45/8 15/27/77 6/6/78
s 3
f 31/47/12 30/46/11 6/6/79 8/8/80
s off
f 50/65/81 49/66/82 51/67/83 52/68/84
s 4
f 65/83/85 66/85/13 32/48/16 14/25/86
s off
f 12/22/87 18/33/88 33/50/89 34/49/90
f 18/33/91 17/32/92 35/51/93 33/50/94
f 17/32/95 1/9/96 36/52/97 35/51/98
f 1/9/99 12/22/100 34/49/101 36/52/102
f 34/49/103 33/50/104 37/54/105 38/53/106
f 33/50/107 35/51/108 39/55/109 37/54/110
f 35/51/111 36/52/112 40/56/113 39/55/114
f 36/52/115 34/49/116 38/53/117 40/56/118
f 7/7/119 20/35/120 42/58/121 41/57/122
f 20/35/123 19/34/124 43/59/125 42/58/126
f 19/34/127 13/24/128 44/60/129 43/59/130
f 13/24/131 7/7/132 41/57/133 44/60/134
f 26/42/135 25/40/136 45/62/137 46/61/138
f 25/40/139 11/19/140 47/63/141 45/62/142
f 11/19/143 2/10/144 48/64/145 47/63/146
f 2/10/147 26/42/148 46/61/149 48/64/150
f 32/48/151 31/47/152 49/66/153 50/65/154
f 31/47/155 8/8/156 51/67/157 49/66/158
f 8/8/159 14/25/160 52/68/161 51/67/162
f 14/25/163 32/48/164 50/65/165 52/68/166
f 24/39/167 27/43/168 55/70/169 54/69/170
f 28/44/171 23/38/172 53/72/173 56/71/174
f 3/3/175 24/39/176 54/69/177 57/73/178
f 23/38/179 9/16/180 58/74/181 53/72/182
f 9/16/183 3/3/184 57/73/185 58/74/186
f 27/43/187 4/4/188 59/75/189 55/70/190
f 4/4/191 10/17/192 60/76/193 59/75/194
f 10/17/195 28/44/196 56/71/197 60/76/198
s 2
f 9/16/199 23/38/200 62/79/6 61/78/63
f 63/80/7 62/79/6 23/38/200 28/44/201
f 64/81/76 63/80/7 28/44/201 10/17/202
s 5
f 10/18/31 11/20/30 65/84/18 64/82/17
s 4
f 25/40/35 66/85/13 65/83/85 11/19/203
f 18/33/34 67/86/14 66/85/13 25/40/35
f 68/88/54 67/86/14 18/33/34 12/22/204
s 6
f 61/77/24 68/87/23 12/21/38 9/15/37
